<?xml version="1.0" standalone="no"?> <!DOCTYPE svg PUBLIC "-//W3C//DTD SVG 1.0//EN" "http://www.w3.org/TR/2001/REC-SVG-20010904/DTD/svg10.dtd" > <svg xmlns="http://www.w3.org/2000/svg" width="100%" height="100%">
<defs >
<font id="led7seg" horiz-adv-x="1600" ><font-face
    font-family="LED7SEG_Standard"
    units-per-em="2048"
    panose-1="2 11 0 0 0 0 0 0 0 0"
    ascent="1792"
    descent="-416"
    alphabetic="0" />
<missing-glyph />
<glyph unicode=" " glyph-name="space" />
<glyph unicode="!" glyph-name="exclam" d="M1568 1568L1440 800L1344 736L1184 896L1280 1504L1440 1696L1568 1568ZM1344 672L1408 608L1280 -224L1184 -320L1024 -96L1120 448L1344 672ZM1408 -192H1472L1504 -224L1536 -256V-352L1504 -384L1472 -416H1408L1376
-384L1344 -352V-256L1376 -224L1408 -192Z" />
<glyph unicode="&quot;" glyph-name="quotedbl" d="M608 1792H1344L1376 1760L1216 1536H672L512 1728L608 1792ZM1568 1568L1440 800L1344 736L1184 896L1280 1504L1440 1696L1568 1568ZM384 704L544 832H1152L1280 704L1120 544H512L384 704ZM320 672L448 480L352
-128L160 -320L64 -224L192 576L320 672V672ZM416 -160H992L1152 -352L1088 -416H288L224 -352L416 -160ZM1408 -192H1472L1504 -224L1536 -256V-352L1504 -384L1472 -416H1408L1376 -384L1344 -352V-256L1376 -224L1408 -192Z" />
<glyph unicode="#" glyph-name="numbersign" d="M608 1792H1344L1376 1760L1216 1536H672L512 1728L608 1792ZM1568 1568L1440 800L1344 736L1184 896L1280 1504L1440 1696L1568 1568ZM384 704L544 832H1152L1280 704L1120 544H512L384 704ZM416 -160H992L1152
-352L1088 -416H288L224 -352L416 -160ZM1344 672L1408 608L1280 -224L1184 -320L1024 -96L1120 448L1344 672ZM1408 -192H1472L1504 -224L1536 -256V-352L1504 -384L1472 -416H1408L1376 -384L1344 -352V-256L1376 -224L1408 -192Z" />
<glyph unicode="$" glyph-name="dollar" d="M1568 1568L1440 800L1344 736L1184 896L1280 1504L1440 1696L1568 1568ZM352 1632L224 864L320 736L512 896L608 1504L448 1696L352 1632ZM384 704L544 832H1152L1280 704L1120 544H512L384 704ZM1344 672L1408 608L1280
-224L1184 -320L1024 -96L1120 448L1344 672ZM1408 -192H1472L1504 -224L1536 -256V-352L1504 -384L1472 -416H1408L1376 -384L1344 -352V-256L1376 -224L1408 -192Z" />
<glyph unicode="%" glyph-name="percent" d="M608 1792H1344L1376 1760L1216 1536H672L512 1728L608 1792ZM352 1632L224 864L320 736L512 896L608 1504L448 1696L352 1632ZM384 704L544 832H1152L1280 704L1120 544H512L384 704ZM416 -160H992L1152 -352L1088
-416H288L224 -352L416 -160ZM1344 672L1408 608L1280 -224L1184 -320L1024 -96L1120 448L1344 672ZM1408 -192H1472L1504 -224L1536 -256V-352L1504 -384L1472 -416H1408L1376 -384L1344 -352V-256L1376 -224L1408 -192Z" />
<glyph unicode="&amp;" glyph-name="ampersand" d="M608 1792H1344L1376 1760L1216 1536H672L512 1728L608 1792ZM352 1632L224 864L320 736L512 896L608 1504L448 1696L352 1632ZM384 704L544 832H1152L1280 704L1120 544H512L384 704ZM320 672L448 480L352 -128L160
-320L64 -224L192 576L320 672V672ZM416 -160H992L1152 -352L1088 -416H288L224 -352L416 -160ZM1344 672L1408 608L1280 -224L1184 -320L1024 -96L1120 448L1344 672ZM1408 -192H1472L1504 -224L1536 -256V-352L1504 -384L1472 -416H1408L1376 -384L1344 -352V-256L1376
-224L1408 -192Z" />
<glyph unicode="&apos;" glyph-name="quotesingle" d="M608 1792H1344L1376 1760L1216 1536H672L512 1728L608 1792ZM1568 1568L1440 800L1344 736L1184 896L1280 1504L1440 1696L1568 1568ZM1344 672L1408 608L1280 -224L1184 -320L1024 -96L1120 448L1344 672ZM1408
-192H1472L1504 -224L1536 -256V-352L1504 -384L1472 -416H1408L1376 -384L1344 -352V-256L1376 -224L1408 -192Z" />
<glyph unicode="(" glyph-name="parenleft" d="M608 1792H1344L1376 1760L1216 1536H672L512 1728L608 1792ZM1568 1568L1440 800L1344 736L1184 896L1280 1504L1440 1696L1568 1568ZM352 1632L224 864L320 736L512 896L608 1504L448 1696L352 1632ZM384 704L544
832H1152L1280 704L1120 544H512L384 704ZM320 672L448 480L352 -128L160 -320L64 -224L192 576L320 672V672ZM416 -160H992L1152 -352L1088 -416H288L224 -352L416 -160ZM1344 672L1408 608L1280 -224L1184 -320L1024 -96L1120 448L1344 672ZM1408 -192H1472L1504
-224L1536 -256V-352L1504 -384L1472 -416H1408L1376 -384L1344 -352V-256L1376 -224L1408 -192Z" />
<glyph unicode=")" glyph-name="parenright" d="M608 1792H1344L1376 1760L1216 1536H672L512 1728L608 1792ZM1568 1568L1440 800L1344 736L1184 896L1280 1504L1440 1696L1568 1568ZM352 1632L224 864L320 736L512 896L608 1504L448 1696L352 1632ZM384 704L544
832H1152L1280 704L1120 544H512L384 704ZM416 -160H992L1152 -352L1088 -416H288L224 -352L416 -160ZM1344 672L1408 608L1280 -224L1184 -320L1024 -96L1120 448L1344 672ZM1408 -192H1472L1504 -224L1536 -256V-352L1504 -384L1472 -416H1408L1376 -384L1344
-352V-256L1376 -224L1408 -192Z" />
<glyph unicode="*" glyph-name="asterisk" d="M608 1792H1344L1376 1760L1216 1536H672L512 1728L608 1792ZM1568 1568L1440 800L1344 736L1184 896L1280 1504L1440 1696L1568 1568ZM352 1632L224 864L320 736L512 896L608 1504L448 1696L352 1632ZM320 672L448
480L352 -128L160 -320L64 -224L192 576L320 672V672ZM416 -160H992L1152 -352L1088 -416H288L224 -352L416 -160ZM1344 672L1408 608L1280 -224L1184 -320L1024 -96L1120 448L1344 672ZM1408 -192H1472L1504 -224L1536 -256V-352L1504 -384L1472 -416H1408L1376
-384L1344 -352V-256L1376 -224L1408 -192Z" />
<glyph unicode="+" glyph-name="plus" d="M384 704L544 832H1152L1280 704L1120 544H512L384 704ZM1408 -192H1472L1504 -224L1536 -256V-352L1504 -384L1472 -416H1408L1376 -384L1344 -352V-256L1376 -224L1408 -192Z" />
<glyph unicode="," glyph-name="comma" d="M608 1792H1344L1376 1760L1216 1536H672L512 1728L608 1792Z" />
<glyph unicode="-" glyph-name="hyphen" d="M384 704L544 832H1152L1280 704L1120 544H512L384 704Z" />
<glyph unicode="." glyph-name="period" d="M1408 -192H1472L1504 -224L1536 -256V-352L1504 -384L1472 -416H1408L1376 -384L1344 -352V-256L1376 -224L1408 -192Z" />
<glyph unicode="/" glyph-name="slash" d="M608 1792H1344L1376 1760L1216 1536H672L512 1728L608 1792ZM1568 1568L1440 800L1344 736L1184 896L1280 1504L1440 1696L1568 1568ZM384 704L544 832H1152L1280 704L1120 544H512L384 704ZM320 672L448 480L352 -128L160
-320L64 -224L192 576L320 672V672ZM416 -160H992L1152 -352L1088 -416H288L224 -352L416 -160ZM1408 -192H1472L1504 -224L1536 -256V-352L1504 -384L1472 -416H1408L1376 -384L1344 -352V-256L1376 -224L1408 -192Z" />
<glyph unicode="0" glyph-name="zero" d="M608 1792H1344L1376 1760L1216 1536H672L512 1728L608 1792ZM1568 1568L1440 800L1344 736L1184 896L1280 1504L1440 1696L1568 1568ZM352 1632L224 864L320 736L512 896L608 1504L448 1696L352 1632ZM320 672L448 480L352
-128L160 -320L64 -224L192 576L320 672V672ZM416 -160H992L1152 -352L1088 -416H288L224 -352L416 -160ZM1344 672L1408 608L1280 -224L1184 -320L1024 -96L1120 448L1344 672Z" />
<glyph unicode="1" glyph-name="one" d="M1568 1568L1440 800L1344 736L1184 896L1280 1504L1440 1696L1568 1568ZM1344 672L1408 608L1280 -224L1184 -320L1024 -96L1120 448L1344 672Z" />
<glyph unicode="2" glyph-name="two" d="M608 1792H1344L1376 1760L1216 1536H672L512 1728L608 1792ZM1568 1568L1440 800L1344 736L1184 896L1280 1504L1440 1696L1568 1568ZM384 704L544 832H1152L1280 704L1120 544H512L384 704ZM320 672L448 480L352 -128L160
-320L64 -224L192 576L320 672V672ZM416 -160H992L1152 -352L1088 -416H288L224 -352L416 -160Z" />
<glyph unicode="3" glyph-name="three" d="M608 1792H1344L1376 1760L1216 1536H672L512 1728L608 1792ZM1568 1568L1440 800L1344 736L1184 896L1280 1504L1440 1696L1568 1568ZM384 704L544 832H1152L1280 704L1120 544H512L384 704ZM416 -160H992L1152 -352L1088
-416H288L224 -352L416 -160ZM1344 672L1408 608L1280 -224L1184 -320L1024 -96L1120 448L1344 672Z" />
<glyph unicode="4" glyph-name="four" d="M1568 1568L1440 800L1344 736L1184 896L1280 1504L1440 1696L1568 1568ZM352 1632L224 864L320 736L512 896L608 1504L448 1696L352 1632ZM384 704L544 832H1152L1280 704L1120 544H512L384 704ZM1344 672L1408 608L1280
-224L1184 -320L1024 -96L1120 448L1344 672Z" />
<glyph unicode="5" glyph-name="five" d="M608 1792H1344L1376 1760L1216 1536H672L512 1728L608 1792ZM352 1632L224 864L320 736L512 896L608 1504L448 1696L352 1632ZM384 704L544 832H1152L1280 704L1120 544H512L384 704ZM416 -160H992L1152 -352L1088 -416H288L224
-352L416 -160ZM1344 672L1408 608L1280 -224L1184 -320L1024 -96L1120 448L1344 672Z" />
<glyph unicode="6" glyph-name="six" d="M608 1792H1344L1376 1760L1216 1536H672L512 1728L608 1792ZM352 1632L224 864L320 736L512 896L608 1504L448 1696L352 1632ZM384 704L544 832H1152L1280 704L1120 544H512L384 704ZM320 672L448 480L352 -128L160 -320L64
-224L192 576L320 672V672ZM416 -160H992L1152 -352L1088 -416H288L224 -352L416 -160ZM1344 672L1408 608L1280 -224L1184 -320L1024 -96L1120 448L1344 672Z" />
<glyph unicode="7" glyph-name="seven" d="M608 1792H1344L1376 1760L1216 1536H672L512 1728L608 1792ZM1568 1568L1440 800L1344 736L1184 896L1280 1504L1440 1696L1568 1568ZM1344 672L1408 608L1280 -224L1184 -320L1024 -96L1120 448L1344 672Z" />
<glyph unicode="8" glyph-name="eight" d="M608 1792H1344L1376 1760L1216 1536H672L512 1728L608 1792ZM1568 1568L1440 800L1344 736L1184 896L1280 1504L1440 1696L1568 1568ZM352 1632L224 864L320 736L512 896L608 1504L448 1696L352 1632ZM384 704L544 832H1152L1280
704L1120 544H512L384 704ZM320 672L448 480L352 -128L160 -320L64 -224L192 576L320 672V672ZM416 -160H992L1152 -352L1088 -416H288L224 -352L416 -160ZM1344 672L1408 608L1280 -224L1184 -320L1024 -96L1120 448L1344 672Z" />
<glyph unicode="9" glyph-name="nine" d="M608 1792H1344L1376 1760L1216 1536H672L512 1728L608 1792ZM1568 1568L1440 800L1344 736L1184 896L1280 1504L1440 1696L1568 1568ZM352 1632L224 864L320 736L512 896L608 1504L448 1696L352 1632ZM384 704L544 832H1152L1280
704L1120 544H512L384 704ZM416 -160H992L1152 -352L1088 -416H288L224 -352L416 -160ZM1344 672L1408 608L1280 -224L1184 -320L1024 -96L1120 448L1344 672Z" />
<glyph unicode=":" glyph-name="colon" d="M608 1792H1344L1376 1760L1216 1536H672L512 1728L608 1792ZM384 704L544 832H1152L1280 704L1120 544H512L384 704ZM320 672L448 480L352 -128L160 -320L64 -224L192 576L320 672V672ZM416 -160H992L1152 -352L1088
-416H288L224 -352L416 -160ZM1344 672L1408 608L1280 -224L1184 -320L1024 -96L1120 448L1344 672Z" />
<glyph unicode=";" glyph-name="semicolon" d="M608 1792H1344L1376 1760L1216 1536H672L512 1728L608 1792ZM384 704L544 832H1152L1280 704L1120 544H512L384 704ZM320 672L448 480L352 -128L160 -320L64 -224L192 576L320 672V672ZM416 -160H992L1152 -352L1088
-416H288L224 -352L416 -160ZM1344 672L1408 608L1280 -224L1184 -320L1024 -96L1120 448L1344 672ZM1408 -192H1472L1504 -224L1536 -256V-352L1504 -384L1472 -416H1408L1376 -384L1344 -352V-256L1376 -224L1408 -192Z" />
<glyph unicode="&lt;" glyph-name="less" d="M608 1792H1344L1376 1760L1216 1536H672L512 1728L608 1792ZM352 1632L224 864L320 736L512 896L608 1504L448 1696L352 1632ZM320 672L448 480L352 -128L160 -320L64 -224L192 576L320 672V672ZM416 -160H992L1152
-352L1088 -416H288L224 -352L416 -160ZM1408 -192H1472L1504 -224L1536 -256V-352L1504 -384L1472 -416H1408L1376 -384L1344 -352V-256L1376 -224L1408 -192Z" />
<glyph unicode="=" glyph-name="equal" d="M384 704L544 832H1152L1280 704L1120 544H512L384 704ZM416 -160H992L1152 -352L1088 -416H288L224 -352L416 -160Z" />
<glyph unicode="&gt;" glyph-name="greater" d="M608 1792H1344L1376 1760L1216 1536H672L512 1728L608 1792ZM1568 1568L1440 800L1344 736L1184 896L1280 1504L1440 1696L1568 1568ZM416 -160H992L1152 -352L1088 -416H288L224 -352L416 -160ZM1344 672L1408
608L1280 -224L1184 -320L1024 -96L1120 448L1344 672ZM1408 -192H1472L1504 -224L1536 -256V-352L1504 -384L1472 -416H1408L1376 -384L1344 -352V-256L1376 -224L1408 -192Z" />
<glyph unicode="?" glyph-name="question" d="M608 1792H1344L1376 1760L1216 1536H672L512 1728L608 1792ZM320 672L448 480L352 -128L160 -320L64 -224L192 576L320 672V672ZM416 -160H992L1152 -352L1088 -416H288L224 -352L416 -160ZM1344 672L1408 608L1280
-224L1184 -320L1024 -96L1120 448L1344 672ZM1408 -192H1472L1504 -224L1536 -256V-352L1504 -384L1472 -416H1408L1376 -384L1344 -352V-256L1376 -224L1408 -192Z" />
<glyph unicode="@" glyph-name="at" d="M608 1792H1344L1376 1760L1216 1536H672L512 1728L608 1792ZM320 672L448 480L352 -128L160 -320L64 -224L192 576L320 672V672ZM416 -160H992L1152 -352L1088 -416H288L224 -352L416 -160ZM1344 672L1408 608L1280 -224L1184
-320L1024 -96L1120 448L1344 672Z" />
<glyph unicode="A" glyph-name="A" d="M608 1792H1344L1376 1760L1216 1536H672L512 1728L608 1792ZM1568 1568L1440 800L1344 736L1184 896L1280 1504L1440 1696L1568 1568ZM352 1632L224 864L320 736L512 896L608 1504L448 1696L352 1632ZM384 704L544 832H1152L1280
704L1120 544H512L384 704ZM320 672L448 480L352 -128L160 -320L64 -224L192 576L320 672V672ZM1344 672L1408 608L1280 -224L1184 -320L1024 -96L1120 448L1344 672ZM1408 -192H1472L1504 -224L1536 -256V-352L1504 -384L1472 -416H1408L1376 -384L1344 -352V-256L1376
-224L1408 -192Z" />
<glyph unicode="B" glyph-name="B" d="M352 1632L224 864L320 736L512 896L608 1504L448 1696L352 1632ZM384 704L544 832H1152L1280 704L1120 544H512L384 704ZM320 672L448 480L352 -128L160 -320L64 -224L192 576L320 672V672ZM416 -160H992L1152 -352L1088
-416H288L224 -352L416 -160ZM1344 672L1408 608L1280 -224L1184 -320L1024 -96L1120 448L1344 672ZM1408 -192H1472L1504 -224L1536 -256V-352L1504 -384L1472 -416H1408L1376 -384L1344 -352V-256L1376 -224L1408 -192Z" />
<glyph unicode="C" glyph-name="C" d="M608 1792H1344L1376 1760L1216 1536H672L512 1728L608 1792ZM352 1632L224 864L320 736L512 896L608 1504L448 1696L352 1632ZM320 672L448 480L352 -128L160 -320L64 -224L192 576L320 672V672ZM416 -160H992L1152 -352L1088
-416H288L224 -352L416 -160ZM1408 -192H1472L1504 -224L1536 -256V-352L1504 -384L1472 -416H1408L1376 -384L1344 -352V-256L1376 -224L1408 -192Z" />
<glyph unicode="D" glyph-name="D" d="M1568 1568L1440 800L1344 736L1184 896L1280 1504L1440 1696L1568 1568ZM384 704L544 832H1152L1280 704L1120 544H512L384 704ZM320 672L448 480L352 -128L160 -320L64 -224L192 576L320 672V672ZM416 -160H992L1152 -352L1088
-416H288L224 -352L416 -160ZM1344 672L1408 608L1280 -224L1184 -320L1024 -96L1120 448L1344 672ZM1408 -192H1472L1504 -224L1536 -256V-352L1504 -384L1472 -416H1408L1376 -384L1344 -352V-256L1376 -224L1408 -192Z" />
<glyph unicode="E" glyph-name="E" d="M608 1792H1344L1376 1760L1216 1536H672L512 1728L608 1792ZM352 1632L224 864L320 736L512 896L608 1504L448 1696L352 1632ZM384 704L544 832H1152L1280 704L1120 544H512L384 704ZM320 672L448 480L352 -128L160 -320L64
-224L192 576L320 672V672ZM416 -160H992L1152 -352L1088 -416H288L224 -352L416 -160ZM1408 -192H1472L1504 -224L1536 -256V-352L1504 -384L1472 -416H1408L1376 -384L1344 -352V-256L1376 -224L1408 -192Z" />
<glyph unicode="F" glyph-name="F" d="M608 1792H1344L1376 1760L1216 1536H672L512 1728L608 1792ZM352 1632L224 864L320 736L512 896L608 1504L448 1696L352 1632ZM384 704L544 832H1152L1280 704L1120 544H512L384 704ZM320 672L448 480L352 -128L160 -320L64
-224L192 576L320 672V672ZM1408 -192H1472L1504 -224L1536 -256V-352L1504 -384L1472 -416H1408L1376 -384L1344 -352V-256L1376 -224L1408 -192Z" />
<glyph unicode="G" glyph-name="G" d="M608 1792H1344L1376 1760L1216 1536H672L512 1728L608 1792ZM352 1632L224 864L320 736L512 896L608 1504L448 1696L352 1632ZM320 672L448 480L352 -128L160 -320L64 -224L192 576L320 672V672ZM416 -160H992L1152 -352L1088
-416H288L224 -352L416 -160ZM1344 672L1408 608L1280 -224L1184 -320L1024 -96L1120 448L1344 672ZM1408 -192H1472L1504 -224L1536 -256V-352L1504 -384L1472 -416H1408L1376 -384L1344 -352V-256L1376 -224L1408 -192Z" />
<glyph unicode="H" glyph-name="H" d="M1568 1568L1440 800L1344 736L1184 896L1280 1504L1440 1696L1568 1568ZM352 1632L224 864L320 736L512 896L608 1504L448 1696L352 1632ZM384 704L544 832H1152L1280 704L1120 544H512L384 704ZM320 672L448 480L352 -128L160
-320L64 -224L192 576L320 672V672ZM1344 672L1408 608L1280 -224L1184 -320L1024 -96L1120 448L1344 672ZM1408 -192H1472L1504 -224L1536 -256V-352L1504 -384L1472 -416H1408L1376 -384L1344 -352V-256L1376 -224L1408 -192Z" />
<glyph unicode="I" glyph-name="I" d="M608 1792H1344L1376 1760L1216 1536H672L512 1728L608 1792ZM320 672L448 480L352 -128L160 -320L64 -224L192 576L320 672V672ZM416 -160H992L1152 -352L1088 -416H288L224 -352L416 -160ZM1408 -192H1472L1504 -224L1536
-256V-352L1504 -384L1472 -416H1408L1376 -384L1344 -352V-256L1376 -224L1408 -192Z" />
<glyph unicode="J" glyph-name="J" d="M608 1792H1344L1376 1760L1216 1536H672L512 1728L608 1792ZM416 -160H992L1152 -352L1088 -416H288L224 -352L416 -160ZM1344 672L1408 608L1280 -224L1184 -320L1024 -96L1120 448L1344 672ZM1408 -192H1472L1504 -224L1536
-256V-352L1504 -384L1472 -416H1408L1376 -384L1344 -352V-256L1376 -224L1408 -192Z" />
<glyph unicode="K" glyph-name="K" d="M1568 1568L1440 800L1344 736L1184 896L1280 1504L1440 1696L1568 1568ZM352 1632L224 864L320 736L512 896L608 1504L448 1696L352 1632ZM384 704L544 832H1152L1280 704L1120 544H512L384 704ZM320 672L448 480L352 -128L160
-320L64 -224L192 576L320 672V672ZM1408 -192H1472L1504 -224L1536 -256V-352L1504 -384L1472 -416H1408L1376 -384L1344 -352V-256L1376 -224L1408 -192Z" />
<glyph unicode="L" glyph-name="L" d="M352 1632L224 864L320 736L512 896L608 1504L448 1696L352 1632ZM320 672L448 480L352 -128L160 -320L64 -224L192 576L320 672V672ZM416 -160H992L1152 -352L1088 -416H288L224 -352L416 -160ZM1408 -192H1472L1504 -224L1536
-256V-352L1504 -384L1472 -416H1408L1376 -384L1344 -352V-256L1376 -224L1408 -192Z" />
<glyph unicode="M" glyph-name="M" d="M608 1792H1344L1376 1760L1216 1536H672L512 1728L608 1792ZM384 704L544 832H1152L1280 704L1120 544H512L384 704ZM320 672L448 480L352 -128L160 -320L64 -224L192 576L320 672V672ZM1344 672L1408 608L1280 -224L1184
-320L1024 -96L1120 448L1344 672ZM1408 -192H1472L1504 -224L1536 -256V-352L1504 -384L1472 -416H1408L1376 -384L1344 -352V-256L1376 -224L1408 -192Z" />
<glyph unicode="N" glyph-name="N" d="M384 704L544 832H1152L1280 704L1120 544H512L384 704ZM320 672L448 480L352 -128L160 -320L64 -224L192 576L320 672V672ZM1344 672L1408 608L1280 -224L1184 -320L1024 -96L1120 448L1344 672ZM1408 -192H1472L1504 -224L1536
-256V-352L1504 -384L1472 -416H1408L1376 -384L1344 -352V-256L1376 -224L1408 -192Z" />
<glyph unicode="O" glyph-name="O" d="M384 704L544 832H1152L1280 704L1120 544H512L384 704ZM320 672L448 480L352 -128L160 -320L64 -224L192 576L320 672V672ZM416 -160H992L1152 -352L1088 -416H288L224 -352L416 -160ZM1344 672L1408 608L1280 -224L1184
-320L1024 -96L1120 448L1344 672ZM1408 -192H1472L1504 -224L1536 -256V-352L1504 -384L1472 -416H1408L1376 -384L1344 -352V-256L1376 -224L1408 -192Z" />
<glyph unicode="P" glyph-name="P" d="M608 1792H1344L1376 1760L1216 1536H672L512 1728L608 1792ZM1568 1568L1440 800L1344 736L1184 896L1280 1504L1440 1696L1568 1568ZM352 1632L224 864L320 736L512 896L608 1504L448 1696L352 1632ZM384 704L544 832H1152L1280
704L1120 544H512L384 704ZM320 672L448 480L352 -128L160 -320L64 -224L192 576L320 672V672ZM1408 -192H1472L1504 -224L1536 -256V-352L1504 -384L1472 -416H1408L1376 -384L1344 -352V-256L1376 -224L1408 -192Z" />
<glyph unicode="Q" glyph-name="Q" d="M608 1792H1344L1376 1760L1216 1536H672L512 1728L608 1792ZM1568 1568L1440 800L1344 736L1184 896L1280 1504L1440 1696L1568 1568ZM352 1632L224 864L320 736L512 896L608 1504L448 1696L352 1632ZM384 704L544 832H1152L1280
704L1120 544H512L384 704ZM1344 672L1408 608L1280 -224L1184 -320L1024 -96L1120 448L1344 672ZM1408 -192H1472L1504 -224L1536 -256V-352L1504 -384L1472 -416H1408L1376 -384L1344 -352V-256L1376 -224L1408 -192Z" />
<glyph unicode="R" glyph-name="R" d="M384 704L544 832H1152L1280 704L1120 544H512L384 704ZM320 672L448 480L352 -128L160 -320L64 -224L192 576L320 672V672ZM1408 -192H1472L1504 -224L1536 -256V-352L1504 -384L1472 -416H1408L1376 -384L1344 -352V-256L1376
-224L1408 -192Z" />
<glyph unicode="S" glyph-name="S" d="M608 1792H1344L1376 1760L1216 1536H672L512 1728L608 1792ZM352 1632L224 864L320 736L512 896L608 1504L448 1696L352 1632ZM384 704L544 832H1152L1280 704L1120 544H512L384 704ZM416 -160H992L1152 -352L1088 -416H288L224
-352L416 -160ZM1344 672L1408 608L1280 -224L1184 -320L1024 -96L1120 448L1344 672ZM1408 -192H1472L1504 -224L1536 -256V-352L1504 -384L1472 -416H1408L1376 -384L1344 -352V-256L1376 -224L1408 -192Z" />
<glyph unicode="T" glyph-name="T" d="M352 1632L224 864L320 736L512 896L608 1504L448 1696L352 1632ZM384 704L544 832H1152L1280 704L1120 544H512L384 704ZM320 672L448 480L352 -128L160 -320L64 -224L192 576L320 672V672ZM416 -160H992L1152 -352L1088
-416H288L224 -352L416 -160ZM1408 -192H1472L1504 -224L1536 -256V-352L1504 -384L1472 -416H1408L1376 -384L1344 -352V-256L1376 -224L1408 -192Z" />
<glyph unicode="U" glyph-name="U" d="M1568 1568L1440 800L1344 736L1184 896L1280 1504L1440 1696L1568 1568ZM352 1632L224 864L320 736L512 896L608 1504L448 1696L352 1632ZM320 672L448 480L352 -128L160 -320L64 -224L192 576L320 672V672ZM416 -160H992L1152
-352L1088 -416H288L224 -352L416 -160ZM1344 672L1408 608L1280 -224L1184 -320L1024 -96L1120 448L1344 672ZM1408 -192H1472L1504 -224L1536 -256V-352L1504 -384L1472 -416H1408L1376 -384L1344 -352V-256L1376 -224L1408 -192Z" />
<glyph unicode="V" glyph-name="V" d="M320 672L448 480L352 -128L160 -320L64 -224L192 576L320 672V672ZM416 -160H992L1152 -352L1088 -416H288L224 -352L416 -160ZM1344 672L1408 608L1280 -224L1184 -320L1024 -96L1120 448L1344 672ZM1408 -192H1472L1504
-224L1536 -256V-352L1504 -384L1472 -416H1408L1376 -384L1344 -352V-256L1376 -224L1408 -192Z" />
<glyph unicode="W" glyph-name="W" d="M1568 1568L1440 800L1344 736L1184 896L1280 1504L1440 1696L1568 1568ZM352 1632L224 864L320 736L512 896L608 1504L448 1696L352 1632ZM384 704L544 832H1152L1280 704L1120 544H512L384 704ZM416 -160H992L1152 -352L1088
-416H288L224 -352L416 -160ZM1408 -192H1472L1504 -224L1536 -256V-352L1504 -384L1472 -416H1408L1376 -384L1344 -352V-256L1376 -224L1408 -192Z" />
<glyph unicode="X" glyph-name="X" d="M352 1632L224 864L320 736L512 896L608 1504L448 1696L352 1632ZM384 704L544 832H1152L1280 704L1120 544H512L384 704ZM1344 672L1408 608L1280 -224L1184 -320L1024 -96L1120 448L1344 672ZM1408 -192H1472L1504 -224L1536
-256V-352L1504 -384L1472 -416H1408L1376 -384L1344 -352V-256L1376 -224L1408 -192Z" />
<glyph unicode="Y" glyph-name="Y" d="M1568 1568L1440 800L1344 736L1184 896L1280 1504L1440 1696L1568 1568ZM352 1632L224 864L320 736L512 896L608 1504L448 1696L352 1632ZM384 704L544 832H1152L1280 704L1120 544H512L384 704ZM416 -160H992L1152 -352L1088
-416H288L224 -352L416 -160ZM1344 672L1408 608L1280 -224L1184 -320L1024 -96L1120 448L1344 672ZM1408 -192H1472L1504 -224L1536 -256V-352L1504 -384L1472 -416H1408L1376 -384L1344 -352V-256L1376 -224L1408 -192Z" />
<glyph unicode="Z" glyph-name="Z" d="M608 1792H1344L1376 1760L1216 1536H672L512 1728L608 1792ZM384 704L544 832H1152L1280 704L1120 544H512L384 704ZM416 -160H992L1152 -352L1088 -416H288L224 -352L416 -160ZM1408 -192H1472L1504 -224L1536 -256V-352L1504
-384L1472 -416H1408L1376 -384L1344 -352V-256L1376 -224L1408 -192Z" />
<glyph unicode="[" glyph-name="bracketleft" d="M608 1792H1344L1376 1760L1216 1536H672L512 1728L608 1792ZM352 1632L224 864L320 736L512 896L608 1504L448 1696L352 1632ZM320 672L448 480L352 -128L160 -320L64 -224L192 576L320 672V672ZM416 -160H992L1152
-352L1088 -416H288L224 -352L416 -160Z" />
<glyph unicode="\" glyph-name="backslash" d="M608 1792H1344L1376 1760L1216 1536H672L512 1728L608 1792ZM1568 1568L1440 800L1344 736L1184 896L1280 1504L1440 1696L1568 1568ZM384 704L544 832H1152L1280 704L1120 544H512L384 704ZM320 672L448 480L352
-128L160 -320L64 -224L192 576L320 672V672ZM416 -160H992L1152 -352L1088 -416H288L224 -352L416 -160ZM1408 -192H1472L1504 -224L1536 -256V-352L1504 -384L1472 -416H1408L1376 -384L1344 -352V-256L1376 -224L1408 -192Z" />
<glyph unicode="]" glyph-name="bracketright" d="M608 1792H1344L1376 1760L1216 1536H672L512 1728L608 1792ZM1568 1568L1440 800L1344 736L1184 896L1280 1504L1440 1696L1568 1568ZM416 -160H992L1152 -352L1088 -416H288L224 -352L416 -160ZM1344 672L1408
608L1280 -224L1184 -320L1024 -96L1120 448L1344 672Z" />
<glyph unicode="^" glyph-name="asciicircum" d="M608 1792H1344L1376 1760L1216 1536H672L512 1728L608 1792ZM1408 -192H1472L1504 -224L1536 -256V-352L1504 -384L1472 -416H1408L1376 -384L1344 -352V-256L1376 -224L1408 -192Z" />
<glyph unicode="_" glyph-name="underscore" d="M416 -160H992L1152 -352L1088 -416H288L224 -352L416 -160Z" />
<glyph unicode="`" glyph-name="grave" d="M416 -160H992L1152 -352L1088 -416H288L224 -352L416 -160ZM1408 -192H1472L1504 -224L1536 -256V-352L1504 -384L1472 -416H1408L1376 -384L1344 -352V-256L1376 -224L1408 -192Z" />
<glyph unicode="a" glyph-name="a" d="M608 1792H1344L1376 1760L1216 1536H672L512 1728L608 1792ZM1568 1568L1440 800L1344 736L1184 896L1280 1504L1440 1696L1568 1568ZM352 1632L224 864L320 736L512 896L608 1504L448 1696L352 1632ZM384 704L544 832H1152L1280
704L1120 544H512L384 704ZM320 672L448 480L352 -128L160 -320L64 -224L192 576L320 672V672ZM1344 672L1408 608L1280 -224L1184 -320L1024 -96L1120 448L1344 672Z" />
<glyph unicode="b" glyph-name="b" d="M352 1632L224 864L320 736L512 896L608 1504L448 1696L352 1632ZM384 704L544 832H1152L1280 704L1120 544H512L384 704ZM320 672L448 480L352 -128L160 -320L64 -224L192 576L320 672V672ZM416 -160H992L1152 -352L1088
-416H288L224 -352L416 -160ZM1344 672L1408 608L1280 -224L1184 -320L1024 -96L1120 448L1344 672Z" />
<glyph unicode="c" glyph-name="c" d="M608 1792H1344L1376 1760L1216 1536H672L512 1728L608 1792ZM352 1632L224 864L320 736L512 896L608 1504L448 1696L352 1632ZM320 672L448 480L352 -128L160 -320L64 -224L192 576L320 672V672ZM416 -160H992L1152 -352L1088
-416H288L224 -352L416 -160Z" />
<glyph unicode="d" glyph-name="d" d="M1568 1568L1440 800L1344 736L1184 896L1280 1504L1440 1696L1568 1568ZM384 704L544 832H1152L1280 704L1120 544H512L384 704ZM320 672L448 480L352 -128L160 -320L64 -224L192 576L320 672V672ZM416 -160H992L1152 -352L1088
-416H288L224 -352L416 -160ZM1344 672L1408 608L1280 -224L1184 -320L1024 -96L1120 448L1344 672Z" />
<glyph unicode="e" glyph-name="e" d="M608 1792H1344L1376 1760L1216 1536H672L512 1728L608 1792ZM352 1632L224 864L320 736L512 896L608 1504L448 1696L352 1632ZM384 704L544 832H1152L1280 704L1120 544H512L384 704ZM320 672L448 480L352 -128L160 -320L64
-224L192 576L320 672V672ZM416 -160H992L1152 -352L1088 -416H288L224 -352L416 -160Z" />
<glyph unicode="f" glyph-name="f" d="M608 1792H1344L1376 1760L1216 1536H672L512 1728L608 1792ZM352 1632L224 864L320 736L512 896L608 1504L448 1696L352 1632ZM384 704L544 832H1152L1280 704L1120 544H512L384 704ZM320 672L448 480L352 -128L160 -320L64
-224L192 576L320 672V672Z" />
<glyph unicode="g" glyph-name="g" d="M608 1792H1344L1376 1760L1216 1536H672L512 1728L608 1792ZM352 1632L224 864L320 736L512 896L608 1504L448 1696L352 1632ZM320 672L448 480L352 -128L160 -320L64 -224L192 576L320 672V672ZM416 -160H992L1152 -352L1088
-416H288L224 -352L416 -160ZM1344 672L1408 608L1280 -224L1184 -320L1024 -96L1120 448L1344 672Z" />
<glyph unicode="h" glyph-name="h" d="M1568 1568L1440 800L1344 736L1184 896L1280 1504L1440 1696L1568 1568ZM352 1632L224 864L320 736L512 896L608 1504L448 1696L352 1632ZM384 704L544 832H1152L1280 704L1120 544H512L384 704ZM320 672L448 480L352 -128L160
-320L64 -224L192 576L320 672V672ZM1344 672L1408 608L1280 -224L1184 -320L1024 -96L1120 448L1344 672Z" />
<glyph unicode="i" glyph-name="i" d="M608 1792H1344L1376 1760L1216 1536H672L512 1728L608 1792ZM320 672L448 480L352 -128L160 -320L64 -224L192 576L320 672V672ZM416 -160H992L1152 -352L1088 -416H288L224 -352L416 -160Z" />
<glyph unicode="j" glyph-name="j" d="M608 1792H1344L1376 1760L1216 1536H672L512 1728L608 1792ZM416 -160H992L1152 -352L1088 -416H288L224 -352L416 -160ZM1344 672L1408 608L1280 -224L1184 -320L1024 -96L1120 448L1344 672Z" />
<glyph unicode="k" glyph-name="k" d="M1568 1568L1440 800L1344 736L1184 896L1280 1504L1440 1696L1568 1568ZM352 1632L224 864L320 736L512 896L608 1504L448 1696L352 1632ZM384 704L544 832H1152L1280 704L1120 544H512L384 704ZM320 672L448 480L352 -128L160
-320L64 -224L192 576L320 672V672Z" />
<glyph unicode="l" glyph-name="l" d="M352 1632L224 864L320 736L512 896L608 1504L448 1696L352 1632ZM320 672L448 480L352 -128L160 -320L64 -224L192 576L320 672V672ZM416 -160H992L1152 -352L1088 -416H288L224 -352L416 -160Z" />
<glyph unicode="m" glyph-name="m" d="M608 1792H1344L1376 1760L1216 1536H672L512 1728L608 1792ZM384 704L544 832H1152L1280 704L1120 544H512L384 704ZM320 672L448 480L352 -128L160 -320L64 -224L192 576L320 672V672ZM1344 672L1408 608L1280 -224L1184
-320L1024 -96L1120 448L1344 672Z" />
<glyph unicode="n" glyph-name="n" d="M384 704L544 832H1152L1280 704L1120 544H512L384 704ZM320 672L448 480L352 -128L160 -320L64 -224L192 576L320 672V672ZM1344 672L1408 608L1280 -224L1184 -320L1024 -96L1120 448L1344 672Z" />
<glyph unicode="o" glyph-name="o" d="M384 704L544 832H1152L1280 704L1120 544H512L384 704ZM320 672L448 480L352 -128L160 -320L64 -224L192 576L320 672V672ZM416 -160H992L1152 -352L1088 -416H288L224 -352L416 -160ZM1344 672L1408 608L1280 -224L1184
-320L1024 -96L1120 448L1344 672Z" />
<glyph unicode="p" glyph-name="p" d="M608 1792H1344L1376 1760L1216 1536H672L512 1728L608 1792ZM1568 1568L1440 800L1344 736L1184 896L1280 1504L1440 1696L1568 1568ZM352 1632L224 864L320 736L512 896L608 1504L448 1696L352 1632ZM384 704L544 832H1152L1280
704L1120 544H512L384 704ZM320 672L448 480L352 -128L160 -320L64 -224L192 576L320 672V672Z" />
<glyph unicode="q" glyph-name="q" d="M608 1792H1344L1376 1760L1216 1536H672L512 1728L608 1792ZM1568 1568L1440 800L1344 736L1184 896L1280 1504L1440 1696L1568 1568ZM352 1632L224 864L320 736L512 896L608 1504L448 1696L352 1632ZM384 704L544 832H1152L1280
704L1120 544H512L384 704ZM1344 672L1408 608L1280 -224L1184 -320L1024 -96L1120 448L1344 672Z" />
<glyph unicode="r" glyph-name="r" d="M384 704L544 832H1152L1280 704L1120 544H512L384 704ZM320 672L448 480L352 -128L160 -320L64 -224L192 576L320 672V672Z" />
<glyph unicode="s" glyph-name="s" d="M608 1792H1344L1376 1760L1216 1536H672L512 1728L608 1792ZM352 1632L224 864L320 736L512 896L608 1504L448 1696L352 1632ZM384 704L544 832H1152L1280 704L1120 544H512L384 704ZM416 -160H992L1152 -352L1088 -416H288L224
-352L416 -160ZM1344 672L1408 608L1280 -224L1184 -320L1024 -96L1120 448L1344 672Z" />
<glyph unicode="t" glyph-name="t" d="M352 1632L224 864L320 736L512 896L608 1504L448 1696L352 1632ZM384 704L544 832H1152L1280 704L1120 544H512L384 704ZM320 672L448 480L352 -128L160 -320L64 -224L192 576L320 672V672ZM416 -160H992L1152 -352L1088
-416H288L224 -352L416 -160Z" />
<glyph unicode="u" glyph-name="u" d="M1568 1568L1440 800L1344 736L1184 896L1280 1504L1440 1696L1568 1568ZM352 1632L224 864L320 736L512 896L608 1504L448 1696L352 1632ZM320 672L448 480L352 -128L160 -320L64 -224L192 576L320 672V672ZM416 -160H992L1152
-352L1088 -416H288L224 -352L416 -160ZM1344 672L1408 608L1280 -224L1184 -320L1024 -96L1120 448L1344 672Z" />
<glyph unicode="v" glyph-name="v" d="M320 672L448 480L352 -128L160 -320L64 -224L192 576L320 672V672ZM416 -160H992L1152 -352L1088 -416H288L224 -352L416 -160ZM1344 672L1408 608L1280 -224L1184 -320L1024 -96L1120 448L1344 672Z" />
<glyph unicode="w" glyph-name="w" d="M1568 1568L1440 800L1344 736L1184 896L1280 1504L1440 1696L1568 1568ZM352 1632L224 864L320 736L512 896L608 1504L448 1696L352 1632ZM384 704L544 832H1152L1280 704L1120 544H512L384 704ZM416 -160H992L1152 -352L1088
-416H288L224 -352L416 -160Z" />
<glyph unicode="x" glyph-name="x" d="M352 1632L224 864L320 736L512 896L608 1504L448 1696L352 1632ZM384 704L544 832H1152L1280 704L1120 544H512L384 704ZM1344 672L1408 608L1280 -224L1184 -320L1024 -96L1120 448L1344 672Z" />
<glyph unicode="y" glyph-name="y" d="M1568 1568L1440 800L1344 736L1184 896L1280 1504L1440 1696L1568 1568ZM352 1632L224 864L320 736L512 896L608 1504L448 1696L352 1632ZM384 704L544 832H1152L1280 704L1120 544H512L384 704ZM416 -160H992L1152 -352L1088
-416H288L224 -352L416 -160ZM1344 672L1408 608L1280 -224L1184 -320L1024 -96L1120 448L1344 672Z" />
<glyph unicode="z" glyph-name="z" d="M608 1792H1344L1376 1760L1216 1536H672L512 1728L608 1792ZM384 704L544 832H1152L1280 704L1120 544H512L384 704ZM416 -160H992L1152 -352L1088 -416H288L224 -352L416 -160Z" />
<glyph unicode="{" glyph-name="braceleft" d="M384 704L544 832H1152L1280 704L1120 544H512L384 704ZM416 -160H992L1152 -352L1088 -416H288L224 -352L416 -160ZM1344 672L1408 608L1280 -224L1184 -320L1024 -96L1120 448L1344 672Z" />
<glyph unicode="|" glyph-name="bar" d="M608 1792H1344L1376 1760L1216 1536H672L512 1728L608 1792ZM1568 1568L1440 800L1344 736L1184 896L1280 1504L1440 1696L1568 1568ZM384 704L544 832H1152L1280 704L1120 544H512L384 704ZM320 672L448 480L352 -128L160
-320L64 -224L192 576L320 672V672ZM416 -160H992L1152 -352L1088 -416H288L224 -352L416 -160ZM1408 -192H1472L1504 -224L1536 -256V-352L1504 -384L1472 -416H1408L1376 -384L1344 -352V-256L1376 -224L1408 -192Z" />
<glyph unicode="}" glyph-name="braceright" d="M384 704L544 832H1152L1280 704L1120 544H512L384 704ZM416 -160H992L1152 -352L1088 -416H288L224 -352L416 -160ZM1344 672L1408 608L1280 -224L1184 -320L1024 -96L1120 448L1344 672ZM1408 -192H1472L1504
-224L1536 -256V-352L1504 -384L1472 -416H1408L1376 -384L1344 -352V-256L1376 -224L1408 -192Z" />
<glyph unicode="~" glyph-name="asciitilde" d="M608 1792H1344L1376 1760L1216 1536H672L512 1728L608 1792ZM1568 1568L1440 800L1344 736L1184 896L1280 1504L1440 1696L1568 1568ZM352 1632L224 864L320 736L512 896L608 1504L448 1696L352 1632ZM320 672L448
480L352 -128L160 -320L64 -224L192 576L320 672V672ZM416 -160H992L1152 -352L1088 -416H288L224 -352L416 -160ZM1344 672L1408 608L1280 -224L1184 -320L1024 -96L1120 448L1344 672ZM1408 -192H1472L1504 -224L1536 -256V-352L1504 -384L1472 -416H1408L1376
-384L1344 -352V-256L1376 -224L1408 -192Z" />
</font>
</defs>
</svg>
